<svg width="32" height="32" viewBox="0 0 32 32" fill="none" xmlns="http://www.w3.org/2000/svg">
<g clip-path="url(#clip0)">
<path d="M11.6728 11.2631C13.8071 11.2631 15.4765 12.9325 15.4765 15.0668C15.4765 17.6237 13.786 20.5187 11.2079 21.5119C11.2079 21.1738 11.2079 20.1384 11.2079 18.8705C9.30609 18.638 7.86914 17.0532 7.86914 15.0668C7.86914 12.9325 9.53853 11.2631 11.6728 11.2631Z" fill="black"/>
<path d="M20.7158 11.2631C22.8501 11.2631 24.5195 12.9325 24.5195 15.0668C24.5195 17.6237 22.8289 20.5187 20.2509 21.5119C20.2509 21.1738 20.2509 20.1384 20.2509 18.8705C18.3491 18.638 16.9121 17.0532 16.9121 15.0668C16.9121 12.9325 18.5815 11.2631 20.7158 11.2631Z" fill="black"/>
<path d="M16.4695 2.11316C23.1048 2.11316 28.8526 7.05794 29.6978 13.7989C30.0782 16.7996 29.4231 19.6735 28.0284 22.1036L29.9725 28.908L22.9569 27.1118C21.4988 27.9359 19.8717 28.4853 18.0966 28.6967C17.5261 28.7601 16.9766 28.8023 16.4272 28.8023C9.7919 28.8023 4.04412 23.8575 3.19886 17.1166C2.31133 9.80505 7.48857 3.1486 14.8001 2.21881C15.3495 2.15542 15.9201 2.11316 16.4695 2.11316ZM16.4695 0C15.8355 0 15.1805 0.0422636 14.5254 0.12679C10.4259 0.633947 6.77009 2.72597 4.25544 5.98023C1.71965 9.23449 0.599677 13.2918 1.12797 17.3913C2.10002 25.1043 8.67193 30.9155 16.4483 30.9155C17.0823 30.9155 17.7374 30.8732 18.3925 30.7887C20.083 30.5774 21.7101 30.0913 23.2316 29.3517L29.4654 30.9366C29.6344 30.9789 29.8246 31 29.9937 31C30.5642 31 31.1137 30.7676 31.5152 30.3661C32.0434 29.8166 32.2336 29.0348 32.0223 28.3163L30.3106 22.3361C31.6631 19.6101 32.1914 16.5883 31.811 13.5453C30.8178 5.83231 24.2248 0 16.4695 0Z" fill="black"/>
</g>
<defs>
<clipPath id="clip0">
<rect width="32" height="32" fill="white"/>
</clipPath>
</defs>
</svg>
