<?xml version="1.0" encoding="UTF-8"?>
<svg width="140px" height="137px" viewBox="0 0 140 137" version="1.1" xmlns="http://www.w3.org/2000/svg" xmlns:xlink="http://www.w3.org/1999/xlink">
    <!-- Generator: Sketch 51 (57462) - http://www.bohemiancoding.com/sketch -->
    <title>icon_brandevent</title>
    <desc>Created with Sketch.</desc>
    <defs></defs>
    <g id="Page-1" stroke="none" stroke-width="1" fill="none" fill-rule="evenodd">
        <g id="icon_brandevent" fill-rule="nonzero">
            <g id="_Layer_" transform="translate(16.000000, 0.000000)" fill="#D6DAEC">
                <path d="M78.91,9.08 L68.58,2.67 C64.4040677,0.0607793337 59.1059323,0.0607793337 54.93,2.67 L44.6,9.08 L8.37,31.58 L6.29,32.87 C2.47606994,35.2218363 0.161243962,39.3892808 0.18,43.87 L0.18,109.46 C0.212800651,116.589037 5.98099037,122.361688 13.11,122.4 L110.4,122.4 C117.52901,122.361688 123.297199,116.589037 123.33,109.46 L123.33,43.86 C123.348756,39.3792808 121.03393,35.2118363 117.22,32.86 L115.77,31.96 L78.91,9.08 Z" id="Shape"></path>
            </g>
            <g id="Tracé" transform="translate(0.000000, 14.000000)" fill="#17212F">
                <path d="M58.15,7 C60.7145543,5.40118048 63.9654457,5.40118048 66.53,7 L70,9.14 L79.48,9.14 L69.16,2.73 C64.9868234,0.111186158 59.6831766,0.111186158 55.51,2.73 L45.18,9.14 L54.66,9.14 L58.15,7 Z" id="Shape"></path>
                <path d="M117.81,32.93 L116.36,32.03 L116.36,38.1 C117.996999,39.5913848 118.926926,41.7055142 118.92,43.92 L118.92,63.27 L112.36,67.36 L112.36,20.05 C112.348992,16.234379 109.255633,13.1454901 105.44,13.14 L19.87,13.14 C16.0716262,13.1674418 13.00539,16.2515309 13,20.05 L13,67.75 L5.81,63.27 L5.81,43.92 C5.80596236,41.4199453 6.99001385,39.0666894 9,37.58 L9,31.64 L6.92,32.93 C3.10606994,35.2818363 0.791243962,39.4492808 0.81,43.93 L0.81,109.52 C0.853475281,116.625755 6.5943649,122.380006 13.7,122.44 L111,122.44 C118.129037,122.407199 123.901688,116.63901 123.94,109.51 L123.94,43.92 C123.95492,39.4378377 121.631469,35.2723019 117.81,32.93 Z M18,20.08 C17.9647133,19.5589925 18.1549213,19.047928 18.522255,18.6767679 C18.8895888,18.3056077 19.3986549,18.1101141 19.92,18.14 L105.49,18.14 C106.546494,18.1399857 107.404497,18.9935206 107.41,20.05 L107.41,70.48 L66.53,96 C63.9692259,97.5994254 60.7207741,97.5994254 58.16,96 L18,70.87 L18,20.08 Z M119,109.51 C118.994482,113.891235 115.441239,117.440003 111.06,117.44 L13.7,117.44 C9.31876136,117.440003 5.76551793,113.891235 5.76,109.51 L5.76,69.16 L55.52,100.16 C57.5603183,101.454093 59.9239263,102.147233 62.34,102.16 C64.7583803,102.14162 67.123689,101.448997 69.17,100.16 L118.92,69.16 L119,109.51 Z" id="Shape"></path>
                <path d="M47.07,59.14 L43.2,59.14 L39.98,53.14 L37.78,53.14 L37.78,59.14 L34.17,59.14 L34.17,42.08 L41.17,42.08 C44.78,42.08 47,44.17 47,47.59 C47.1286919,49.8489019 45.7764013,51.9299719 43.66,52.73 L47.07,59.14 Z M40.69,49.85 C42.42,49.85 43.34,49.05 43.34,47.56 C43.34,46.07 42.44,45.37 40.69,45.37 L37.78,45.37 L37.78,49.85 L40.69,49.85 Z" id="Shape"></path>
                <path d="M48.14,53.51 L51.68,52.76 C52.12,55.29 53.14,56.27 55.41,56.27 C57.09,56.27 58.04,55.66 58.04,54.58 C58.04,53.5 57.21,52.78 54.38,51.83 C50.38,50.49 48.92,49.05 48.92,46.54 C48.92,43.68 51.29,41.71 54.7,41.71 C58.11,41.71 60.7,43.71 61.19,46.71 L57.68,47.47 C57.21,45.74 56.26,44.93 54.68,44.93 C53.34,44.93 52.46,45.54 52.46,46.49 C52.46,47.44 53.19,47.86 55.73,48.71 C59.97,50.17 61.63,51.81 61.63,54.56 C61.63,57.51 59.1,59.49 55.34,59.49 C51.29,59.51 48.75,57.41 48.14,53.51 Z" id="Shape"></path>
                <polygon id="Shape" points="61.26 42.08 65.06 42.08 69.21 54.08 69.21 54.08 73.33 42.08 77.16 42.08 71 59.14 67.4 59.14"></polygon>
                <path d="M78.74,42.08 L85.74,42.08 C89.37,42.08 91.66,44.2 91.66,47.71 C91.66,51.22 89.42,53.32 85.66,53.32 L82.32,53.32 L82.32,59.14 L78.71,59.14 L78.74,42.08 Z M85.64,50 C86.2795694,50.0590634 86.9131939,49.836962 87.37592,49.3915161 C87.8386462,48.9460701 88.0846907,48.3213533 88.05,47.68 C88.1303258,47.0314662 87.9011952,46.3828857 87.4313112,45.92873 C86.9614272,45.4745743 86.3054244,45.2676494 85.66,45.37 L82.35,45.37 L82.35,50 L85.64,50 Z" id="Shape"></path>
            </g>
        </g>
    </g>
</svg>