<?xml version="1.0" encoding="utf-8"?>
<!-- Generator: Adobe Illustrator 24.1.1, SVG Export Plug-In . SVG Version: 6.00 Build 0)  -->
<svg version="1.1" id="Layer_1" xmlns="http://www.w3.org/2000/svg" xmlns:xlink="http://www.w3.org/1999/xlink" x="0px" y="0px"
	 viewBox="0 0 140 137" style="enable-background:new 0 0 140 137;" xml:space="preserve">
<style type="text/css">
	.st0{fill:#8CF99B;}
	.st1{fill:#17212F;}
</style>
<desc>Created with Sketch.</desc>
<g id="Page-1">
	<g id="icon_brandevent">
		<g id="_Layer_" transform="translate(16.000000, 0.000000)">
			<path id="Shape" class="st0" d="M78.9,9.1L68.6,2.7c-4.2-2.6-9.5-2.6-13.7,0L44.6,9.1L8.4,31.6l-2.1,1.3c-3.8,2.4-6.1,6.5-6.1,11
				v65.6c0,7.1,5.8,12.9,12.9,12.9h97.3c7.1,0,12.9-5.8,12.9-12.9V43.9c0-4.5-2.3-8.6-6.1-11l-1.5-0.9L78.9,9.1z"/>
		</g>
		<g id="Tracé" transform="translate(0.000000, 14.000000)">
			<path id="Shape_1_" class="st1" d="M58.2,7c2.6-1.6,5.8-1.6,8.4,0L70,9.1h9.5L69.2,2.7c-4.2-2.6-9.5-2.6-13.7,0L45.2,9.1h9.5
				L58.2,7z"/>
			<path id="Shape_2_" class="st1" d="M117.8,32.9l-1.4-0.9v6.1c1.6,1.5,2.6,3.6,2.6,5.8v19.4l-6.6,4.1V20c0-3.8-3.1-6.9-6.9-6.9
				H19.9c-3.8,0-6.9,3.1-6.9,6.9v47.7l-7.2-4.5V43.9c0-2.5,1.2-4.9,3.2-6.3v-5.9l-2.1,1.3c-3.8,2.4-6.1,6.5-6.1,11v65.6
				c0,7.1,5.8,12.9,12.9,12.9H111c7.1,0,12.9-5.8,12.9-12.9V43.9C124,39.4,121.6,35.3,117.8,32.9z M18,20.1c0-0.5,0.2-1,0.5-1.4
				s0.9-0.6,1.4-0.5h85.6c1.1,0,1.9,0.9,1.9,1.9v50.4L66.5,96c-2.6,1.6-5.8,1.6-8.4,0L18,70.9V20.1z M119,109.5
				c0,4.4-3.6,7.9-7.9,7.9H13.7c-4.4,0-7.9-3.5-7.9-7.9V69.2l49.8,31c2,1.3,4.4,2,6.8,2c2.4,0,4.8-0.7,6.8-2l49.8-31L119,109.5z"/>
		</g>
	</g>
</g>
<g>
	<g>
		<path class="st1" d="M89.6,69.7c2.5-0.6,4.9-1.2,7.4-1.8c1-0.1,1.8-0.6,2.1-1.4c0.3-0.8,0-1.5-0.1-1.6c-0.1-0.2-0.4-1-1.2-1.3
			c-0.9-0.4-1.8,0.1-1.9,0.2l-6.3,2.3c0,0-3,0.5-2,2.7C87.7,68.7,88.1,70,89.6,69.7z"/>
		<path class="st1" d="M84.1,56c2.2-1.3,4.4-2.5,6.6-3.8c0.9-0.4,1.5-1.1,1.6-2c0.1-0.8-0.4-1.4-0.6-1.5c-0.2-0.2-0.7-0.8-1.5-0.9
			c-1-0.1-1.7,0.6-1.7,0.7l-5.3,4c0,0-2.7,1.3-1.1,3.1C82,55.6,82.7,56.8,84.1,56z"/>
		<path class="st1" d="M73.8,45.6c1.6-2,3.2-3.9,4.8-5.9c0.7-0.6,1-1.6,0.8-2.4c-0.2-0.8-0.9-1.1-1.1-1.2c-0.2-0.1-0.9-0.5-1.7-0.3
			c-1,0.3-1.3,1.2-1.4,1.3l-3.5,5.7c0,0-2.1,2.2,0.1,3.3C71.6,46,72.8,46.8,73.8,45.6z"/>
	</g>
	<path class="st1" d="M50.9,52.7c0,0-0.7,12.2-10.8,18c-1.9,1.1-5.6,2.8-6.5,6.3c-0.5,2.1,0.1,4.5,0.4,5.7c0.2,0.7,0.8,2.8,2.5,5.2
		c1.1,1.5,3.7,4.4,7.5,5.8c1.6,0.6,3.9,1,5.3-0.4c3.3-3.4,13.8-10.7,24.5-8.1c0,0-5.7-5.1-7.7-4.5c0,0-4.1-0.1-8.1,1.6
		c-4,1.7-11.4-10.1-9.5-12.8s3.3-4.5,4.8-9.2L50.9,52.7z"/>
	<path class="st1" d="M50.1,91.8l8.6,7.7c0,0,3.1,3.2,5.5,1.1l6.5-5.1c0,0,3.7-2.3-2.1-4.8c0,0-0.7-0.3-2.5,0.1
		c-1.7,0.4-3.8-0.9-4.4-1.3s-4.1-3.1-5.9-1.9L50.1,91.8z"/>
	<path class="st1" d="M55.7,48.8c3.5,0.6,10.1,5.5,16,13.7c7,9.8,8.3,17.6,7.8,19.8c-0.1,0-0.1,0-0.2,0c-3.5-0.6-10.1-5.5-16-13.7
		c-7-9.8-8.3-17.6-7.8-19.8C55.5,48.7,55.6,48.8,55.7,48.8L55.7,48.8z M56.6,43.5c-1.7-0.3-3.2-0.1-4.3,0.8
		c-4.8,3.4-1.8,15.7,6.6,27.5c6.4,8.9,14.1,15,19.5,15.9c1.7,0.3,3.2,0.1,4.3-0.8c4.8-3.4,1.8-15.7-6.6-27.5
		C69.7,50.4,62,44.4,56.6,43.5L56.6,43.5z"/>
</g>
</svg>
