<svg width="1128" height="1156" viewBox="0 0 1128 1156" fill="none" xmlns="http://www.w3.org/2000/svg">
<path fill-rule="evenodd" clip-rule="evenodd" d="M858.485 742.965C796.961 836.803 598.585 1025 377.074 957.957C255.504 921.16 38.1709 838.902 58.7258 664.895C71.2221 559.139 271.546 524.148 408.532 461.592C514.446 413.227 761.48 161.814 878.429 272.573C995.383 383.329 965.73 579.389 858.485 742.965" fill="#008780"/>
<mask id="mask0" mask-type="alpha" maskUnits="userSpaceOnUse" x="0" y="100" width="1118" height="1054">
<path fill-rule="evenodd" clip-rule="evenodd" d="M858.485 742.965C796.961 836.803 598.585 1025 377.074 957.957C255.504 921.16 38.1709 838.902 58.7258 664.895C71.2221 559.139 271.546 524.148 408.532 461.592C514.446 413.227 761.48 161.814 878.429 272.573C995.383 383.329 965.73 579.389 858.485 742.965" fill="white"/>
</mask>
<g mask="url(#mask0)">
</g>
<path fill-rule="evenodd" clip-rule="evenodd" d="M865.919 625.107C817.268 726.22 645.363 938.869 416.959 901.536C291.607 881.045 65.3437 828.079 62.8388 652.881C61.32 546.399 255.303 485.37 382.874 405.345C481.509 343.473 693.337 61.7587 823.835 156.177C954.338 250.592 950.723 448.849 865.919 625.107" fill="#008780" fill-opacity="0.15"/>
<path fill-rule="evenodd" clip-rule="evenodd" d="M865.919 625.107C817.268 726.22 645.363 938.869 416.959 901.536C291.607 881.045 65.3437 828.079 62.8388 652.881C61.32 546.399 255.303 485.37 382.874 405.345C481.509 343.473 693.337 61.7587 823.835 156.177C954.338 250.592 950.723 448.849 865.919 625.107" fill="#008780" fill-opacity="0.5"/>
<mask id="mask1" mask-type="alpha" maskUnits="userSpaceOnUse" x="5" y="2" width="1096" height="1095">
<path fill-rule="evenodd" clip-rule="evenodd" d="M865.919 625.107C817.268 726.22 645.363 938.869 416.959 901.536C291.607 881.045 65.3437 828.079 62.8388 652.881C61.32 546.399 255.303 485.37 382.874 405.345C481.509 343.473 693.337 61.7587 823.835 156.177C954.338 250.592 950.723 448.849 865.919 625.107" fill="white"/>
</mask>
<g mask="url(#mask1)">
</g>
<path fill-rule="evenodd" clip-rule="evenodd" d="M888.332 661.358C839.837 762.547 668.261 975.462 439.8 938.483C314.416 918.186 88.0711 865.571 85.2949 690.376C83.6112 583.897 277.499 522.568 404.946 442.345C503.485 380.32 714.877 98.2785 845.521 192.495C976.17 286.707 972.862 484.97 888.332 661.358" fill="#008780" fill-opacity="0.5"/>
<path fill-rule="evenodd" clip-rule="evenodd" d="M888.332 661.358C839.837 762.547 668.261 975.462 439.8 938.483C314.416 918.186 88.0711 865.571 85.2949 690.376C83.6112 583.897 277.499 522.568 404.946 442.345C503.485 380.32 714.877 98.2785 845.521 192.495C976.17 286.707 972.862 484.97 888.332 661.358" fill="#008780" fill-opacity="0.5"/>
<mask id="mask2" mask-type="alpha" maskUnits="userSpaceOnUse" x="28" y="38" width="1096" height="1096">
<path fill-rule="evenodd" clip-rule="evenodd" d="M888.332 661.358C839.837 762.547 668.261 975.462 439.8 938.483C314.416 918.186 88.0711 865.571 85.2949 690.376C83.6112 583.897 277.499 522.568 404.946 442.345C503.485 380.32 714.877 98.2785 845.521 192.495C976.17 286.707 972.862 484.97 888.332 661.358" fill="white"/>
</mask>
<g mask="url(#mask2)">
</g>
</svg>
