<svg width="558" height="565" viewBox="0 0 558 565" fill="none" xmlns="http://www.w3.org/2000/svg">
<path fill-rule="evenodd" clip-rule="evenodd" d="M119.011 248.356C142.26 195.976 226.679 84.7249 343.861 100.199C408.173 108.693 524.507 132.181 528.535 221.577C530.981 275.91 432.913 310.108 369.046 352.962C319.665 386.094 215.95 533.227 147.852 487.076C79.7512 440.926 78.4857 339.663 119.011 248.356" fill="#D2E6E5"/>
<mask id="mask0" mask-type="alpha" maskUnits="userSpaceOnUse" x="2" y="0" width="556" height="564">
<path fill-rule="evenodd" clip-rule="evenodd" d="M119.011 248.356C142.26 195.976 226.679 84.7249 343.861 100.199C408.173 108.693 524.507 132.181 528.535 221.577C530.981 275.91 432.913 310.108 369.046 352.962C319.665 386.094 215.95 533.227 147.852 487.076C79.7512 440.926 78.4857 339.663 119.011 248.356" fill="white"/>
</mask>
<g mask="url(#mask0)">
</g>
</svg>
