<svg width="1015" height="776" viewBox="0 0 1015 776" fill="none" xmlns="http://www.w3.org/2000/svg">
<path fill-rule="evenodd" clip-rule="evenodd" d="M167.267 675.04C189.341 679.263 210.742 682.412 231.513 684.585C418.774 704.181 554.761 644.481 670.972 577.428C800.073 502.939 964.063 306.306 953.06 203.303C942.057 100.3 827.006 115.719 726.62 68.5489C626.235 21.3783 455.992 67.3158 325.386 202.726C194.78 338.136 -53.8309 632.747 167.267 675.04Z" fill="#EDF9F4"/>
<path fill-rule="evenodd" clip-rule="evenodd" d="M161.267 721.04C183.342 725.263 204.743 728.412 225.513 730.585C412.774 750.181 548.761 690.481 664.972 623.428C794.073 548.939 958.063 352.306 947.06 249.303C936.057 146.3 821.006 161.719 720.62 114.549C620.235 67.3783 449.993 113.316 319.386 248.726C188.78 384.136 -59.8307 678.747 161.267 721.04Z" fill="#68E3B4"/>
</svg>
