<svg width="51" height="51" viewBox="0 0 51 51" fill="none" xmlns="http://www.w3.org/2000/svg">
<mask id="mask0" mask-type="alpha" maskUnits="userSpaceOnUse" x="0" y="0" width="51" height="51">
<path fill-rule="evenodd" clip-rule="evenodd" d="M25.4955 0.5C18.7071 0.5 17.8559 0.528779 15.1898 0.650444C12.5294 0.771812 10.7124 1.19447 9.12247 1.81252C7.4788 2.45131 6.08487 3.30614 4.6952 4.69597C3.30563 6.08589 2.45095 7.48008 1.81228 9.12405C1.19434 10.7142 0.771762 12.5316 0.650417 15.1925C0.528774 17.859 0.5 18.7104 0.5 25.5C0.5 32.2896 0.528774 33.141 0.650417 35.8075C0.771762 38.4684 1.19434 40.2858 1.81228 41.8759C2.45095 43.5199 3.30563 44.9141 4.6952 46.304C6.08487 47.6939 7.4788 48.5487 9.12247 49.1876C10.7124 49.8055 12.5294 50.2282 15.1898 50.3496C17.8559 50.4712 18.7071 50.5 25.4955 50.5C32.2838 50.5 33.135 50.4712 35.801 50.3496C38.4615 50.2282 40.2785 49.8055 41.8684 49.1876C43.512 48.5487 44.906 47.6939 46.2956 46.304C47.6852 44.9141 48.5399 43.5199 49.1787 41.8759C49.7965 40.2858 50.2191 38.4684 50.3404 35.8075C50.4621 33.141 50.4908 32.2896 50.4908 25.5C50.4908 18.7104 50.4621 17.859 50.3404 15.1925C50.2191 12.5316 49.7965 10.7142 49.1787 9.12405C48.5399 7.48008 47.6852 6.08589 46.2956 4.69597C44.906 3.30614 43.512 2.45131 41.8684 1.81252C40.2785 1.19447 38.4615 0.771812 35.801 0.650444C33.135 0.528779 32.2838 0.5 25.4955 0.5ZM25.4972 5.00423C32.1712 5.00423 32.9618 5.02974 35.5974 5.15001C38.0345 5.26116 39.3579 5.66843 40.2387 6.0108C41.4054 6.46431 42.2381 7.00605 43.1127 7.88093C43.9874 8.75571 44.5291 9.58851 44.9825 10.7554C45.3248 11.6364 45.732 12.9601 45.8431 15.3976C45.9634 18.0337 45.9889 18.8244 45.9889 25.4998C45.9889 32.175 45.9634 32.9657 45.8431 35.6018C45.732 38.0393 45.3248 39.363 44.9825 40.244C44.5291 41.4109 43.9874 42.2437 43.1127 43.1185C42.2381 43.9934 41.4054 44.5351 40.2387 44.9886C39.3579 45.331 38.0345 45.7383 35.5974 45.8494C32.9622 45.9697 32.1717 45.9952 25.4972 45.9952C18.8226 45.9952 18.0322 45.9697 15.3968 45.8494C12.9598 45.7383 11.6363 45.331 10.7555 44.9886C9.58882 44.5351 8.75617 43.9934 7.88155 43.1185C7.00693 42.2437 6.46519 41.4109 6.01175 40.244C5.66945 39.363 5.26225 38.0393 5.15112 35.6018C5.03087 32.9657 5.00537 32.175 5.00537 25.4998C5.00537 18.8244 5.03087 18.0337 5.15112 15.3976C5.26225 12.9601 5.66945 11.6364 6.01175 10.7554C6.46519 9.58851 7.00683 8.75571 7.88155 7.88093C8.75617 7.00605 9.58882 6.46431 10.7555 6.0108C11.6363 5.66843 12.9598 5.26116 15.3968 5.15001C18.0325 5.02974 18.8231 5.00423 25.4972 5.00423ZM12.6608 25.5003C12.6608 18.4101 18.4074 12.6624 25.4963 12.6624C32.5852 12.6624 38.3318 18.4101 38.3318 25.5003C38.3318 32.5905 32.5852 38.3381 25.4963 38.3381C18.4074 38.3381 12.6608 32.5905 12.6608 25.5003ZM25.4954 33.8335C20.8938 33.8335 17.1636 30.1025 17.1636 25.5002C17.1636 20.8977 20.8938 17.1668 25.4954 17.1668C30.0969 17.1668 33.8272 20.8977 33.8272 25.5002C33.8272 30.1025 30.0969 33.8335 25.4954 33.8335ZM38.8339 15.1552C40.4908 15.1552 41.834 13.8121 41.834 12.1552C41.834 10.4983 40.4908 9.15517 38.8339 9.15517C37.1772 9.15517 35.834 10.4983 35.834 12.1552C35.834 13.8121 37.1772 15.1552 38.8339 15.1552Z" fill="white"/>
</mask>
<g mask="url(#mask0)">
<path fill-rule="evenodd" clip-rule="evenodd" d="M0.5 50.5H50.5V0.5H0.5V50.5Z" fill="url(#paint0_radial)"/>
</g>
<defs>
<radialGradient id="paint0_radial" cx="0" cy="0" r="1" gradientUnits="userSpaceOnUse" gradientTransform="translate(7.07715 59.7783) rotate(-75.9324) scale(75.7976 84.3899)">
<stop stop-color="#FDF497"/>
<stop offset="0.140791" stop-color="#FDF497"/>
<stop offset="0.454622" stop-color="#FD5949"/>
<stop offset="0.673764" stop-color="#D6249F"/>
<stop offset="1" stop-color="#285AEB"/>
</radialGradient>
</defs>
</svg>
