<?xml version="1.0" encoding="UTF-8"?>
<svg width="150px" height="134px" viewBox="0 0 150 134" version="1.1" xmlns="http://www.w3.org/2000/svg" xmlns:xlink="http://www.w3.org/1999/xlink">
    <!-- Generator: Sketch 51 (57462) - http://www.bohemiancoding.com/sketch -->
    <title>icon_socialmediacontent</title>
    <desc>Created with Sketch.</desc>
    <defs></defs>
    <g id="Page-1" stroke="none" stroke-width="1" fill="none" fill-rule="evenodd">
        <g id="icon_socialmediacontent">
            <g id="_Layer_" transform="translate(31.000000, 0.000000)" fill="#A4EED2" fill-rule="nonzero">
                <path d="M110.48,91.42 L7.73,91.42 C3.51054451,91.42 0.09,87.9994555 0.09,83.78 L0.09,8.43 C0.09,4.21054451 3.51054451,0.79 7.73,0.79 L110.48,0.79 C114.699455,0.79 118.12,4.21054451 118.12,8.43 L118.12,83.78 C118.12,87.9994555 114.699455,91.42 110.48,91.42 Z" id="Shape"></path>
            </g>
            <g id="Tracé" transform="translate(0.000000, 12.000000)">
                <path d="M105.41,121.25 C90.9646379,119.58338 80.3275775,106.937341 81.16,92.42 C81.3599132,88.7972124 82.2920094,85.2525254 83.9,82 C84.3075136,81.1476824 85.1754413,80.6120694 86.12,80.63 C86.9843557,80.632108 87.7868148,81.0788036 88.2440102,81.8123482 C88.7012056,82.5458928 88.748805,83.4630688 88.37,84.24 C87.0779103,86.8712883 86.32321,89.7337102 86.15,92.66 C85.514042,102.839417 91.8592181,112.155048 101.564505,115.290711 C111.269791,118.426374 121.866059,114.584321 127.306299,105.957111 C132.746538,97.3299005 131.646695,86.1123877 124.634419,78.7061091 C117.622144,71.2998304 106.481435,69.5890234 97.57,74.55 C96.3113975,75.2355269 94.7357283,74.7916764 94.02,73.55 C93.4200347,72.3593303 93.8600272,70.9073551 95.02,70.25 C105.320628,64.4858081 118.158359,65.9888479 126.848921,73.9765258 C135.539482,81.9642036 138.117334,94.6299503 133.240256,105.379042 C128.363179,116.128133 117.134217,122.529453 105.4,121.25 L105.41,121.25 Z" id="Shape" fill="#17212F" fill-rule="nonzero"></path>
                <path d="M90.49,79.36 C89.4592155,79.3552632 88.5370124,78.718352 88.1675714,77.7560358 C87.7981305,76.7937196 88.0572005,75.7033081 88.82,75.01 L89.09,74.76 C90.118828,73.87337 91.667328,73.9703151 92.5775395,74.9783404 C93.4877509,75.9863656 93.4266821,77.536695 92.44,78.47 L92.17,78.71 C91.7117907,79.1304251 91.1118574,79.3625422 90.49,79.36 Z" id="Shape" fill="#17212F" fill-rule="nonzero"></path>
                <path d="M99.08,106.64 C98.5033206,106.641025 97.9614681,106.364153 97.6244066,105.896233 C97.2873451,105.428312 97.1963635,104.826661 97.38,104.28 L100.94,93.6 L97.39,83.44 C97.1506375,82.7523771 97.3516259,81.9882846 97.8983459,81.5074344 C98.445066,81.0265842 99.2285669,80.9248005 99.88,81.25 L121.88,92.25 C122.491758,92.5535163 122.87907,93.1770876 122.88,93.86 C122.88,94.540663 122.491832,95.1617319 121.88,95.46 L99.88,106.46 C99.6298263,106.578134 99.3566627,106.639595 99.08,106.64 Z M102.23,86.43 L104.52,92.99 C104.655156,93.364856 104.655156,93.775144 104.52,94.15 L102.14,101.3 L117.05,93.85 L102.23,86.43 Z" id="Shape" fill="#17212F" fill-rule="nonzero"></path>
                <path d="M71.38,36.86 L72.16,36.86 C73.5407119,36.86 74.66,37.9792881 74.66,39.36 C74.66,40.7407119 73.5407119,41.86 72.16,41.86 L71.38,41.86 C69.9992881,41.86 68.88,40.7407119 68.88,39.36 C68.88,37.9792881 69.9992881,36.86 71.38,36.86 Z M37.51,36.86 L61.65,36.86 C63.0307119,36.86 64.15,37.9792881 64.15,39.36 C64.15,40.7407119 63.0307119,41.86 61.65,41.86 L37.51,41.86 C36.1292881,41.86 35.01,40.7407119 35.01,39.36 C35.01,37.9792881 36.1292881,36.86 37.51,36.86 Z M35,54.5 C35,53.1192881 36.1192881,52 37.5,52 L94.43,52 C95.8107119,52 96.93,53.1192881 96.93,54.5 C96.93,55.8807119 95.8107119,57 94.43,57 L37.51,57 C36.8452278,57.0026591 36.206771,56.7404414 35.735765,56.2713119 C35.2647591,55.8021824 34.9999947,55.1647775 35,54.5 Z" id="Shape"></path>
                <path d="M129.85,5.24 L27.09,5.24 C24.2724126,5.26197016 21.9999143,7.55232698 22,10.37 L22,21.73 L135,21.73 L135,10.37 C135.00001,9.00596709 134.456785,7.6980914 133.490394,6.73545279 C132.524002,5.77281418 131.214023,5.23468213 129.85,5.24 Z M106.52,18.54 L97.1,18.54 C95.7192881,18.54 94.6,17.4207119 94.6,16.04 C94.6,14.6592881 95.7192881,13.54 97.1,13.54 L106.52,13.54 C107.900712,13.54 109.02,14.6592881 109.02,16.04 C109.02,17.4207119 107.900712,18.54 106.52,18.54 Z M127.7,16.11 C128.169604,16.5773111 128.433619,17.2124988 128.433619,17.875 C128.433619,18.5375012 128.169604,19.1726889 127.7,19.64 C127.235862,20.1108385 126.601133,20.3741068 125.94,20.37 C125.276288,20.3722907 124.639129,20.1095073 124.17,19.64 L121.36,16.83 L118.54,19.64 C118.075862,20.1108385 117.441133,20.3741068 116.78,20.37 C115.771839,20.3677845 114.863665,19.7602348 114.476841,18.8292352 C114.090017,17.8982355 114.300251,16.8259951 115.01,16.11 L117.82,13.29 L115,10.48 C114.246023,9.87774444 113.90598,8.89532642 114.126314,7.95583373 C114.346648,7.01634105 115.088015,6.28754035 116.031136,6.08329669 C116.974258,5.87905302 117.95072,6.2358385 118.54,7 L121.36,9.81 L124.17,7 C124.787514,6.30919957 125.736451,6.01658977 126.635764,6.2396685 C127.535077,6.46274722 128.237253,7.16492306 128.460332,8.06423624 C128.68341,8.96354943 128.3908,9.91248636 127.7,10.53 L124.89,13.34 L127.7,16.11 Z" id="Shape"></path>
                <path d="M140,10.37 C139.994488,4.7776404 135.46236,0.245512433 129.87,0.24 L27.09,0.24 C21.5132677,0.267496369 17.005432,4.79320254 17,10.37 L17,85.73 C16.9981616,86.7462092 17.1464282,87.7571176 17.44,88.73 L22,83.94 L22,26.73 L135,26.73 L135,81.48 C136.58507,84.7988309 137.521845,88.3897999 137.76,92.06 C139.208866,90.2684071 139.99951,88.0341303 140,85.73 L140,10.37 Z M135,21.73 L22,21.73 L22,10.37 C22,7.53677923 24.2967792,5.24 27.13,5.24 L129.85,5.24 C132.683221,5.24 134.98,7.53677923 134.98,10.37 L135,21.73 Z" id="Shape" fill="#17212F" fill-rule="nonzero"></path>
                <path d="M79.21,90.86 L44.4,90.86 L39.59,95.86 L79.09,95.86 C79.09,95.27 79.03,94.69 79.03,94.09 C79.0293089,93.0108078 79.089404,91.9324332 79.21,90.86 Z" id="Shape" fill="#17212F" fill-rule="nonzero"></path>
                <path d="M37.51,41.86 L61.65,41.86 C63.0307119,41.86 64.15,40.7407119 64.15,39.36 C64.15,37.9792881 63.0307119,36.86 61.65,36.86 L37.51,36.86 C36.1292881,36.86 35.01,37.9792881 35.01,39.36 C35.01,40.7407119 36.1292881,41.86 37.51,41.86 Z" id="Shape" fill="#17212F" fill-rule="nonzero"></path>
                <path d="M106.52,13.54 L97.1,13.54 C95.7192881,13.54 94.6,14.6592881 94.6,16.04 C94.6,17.4207119 95.7192881,18.54 97.1,18.54 L106.52,18.54 C107.900712,18.54 109.02,17.4207119 109.02,16.04 C109.02,14.6592881 107.900712,13.54 106.52,13.54 Z" id="Shape" fill="#17212F" fill-rule="nonzero"></path>
                <path d="M96.94,54.5 C96.9426715,53.8361434 96.6801373,53.1987053 96.210716,52.729284 C95.7412947,52.2598627 95.1038566,51.9973285 94.44,52 L37.51,52 C36.1292881,52 35.01,53.1192881 35.01,54.5 C35.01,55.8807119 36.1292881,57 37.51,57 L94.44,57 C95.1038566,57.0026715 95.7412947,56.7401373 96.210716,56.270716 C96.6801373,55.8012947 96.9426715,55.1638566 96.94,54.5 Z" id="Shape" fill="#17212F" fill-rule="nonzero"></path>
                <path d="M71.38,41.86 L72.16,41.86 C73.5407119,41.86 74.66,40.7407119 74.66,39.36 C74.66,37.9792881 73.5407119,36.86 72.16,36.86 L71.38,36.86 C69.9992881,36.86 68.88,37.9792881 68.88,39.36 C68.88,40.7407119 69.9992881,41.86 71.38,41.86 Z" id="Shape" fill="#17212F" fill-rule="nonzero"></path>
                <path d="M127.7,7 C127.232689,6.53039576 126.597501,6.26638122 125.935,6.26638122 C125.272499,6.26638122 124.637311,6.53039576 124.17,7 L121.36,9.81 L118.54,7 C117.922486,6.30919957 116.973549,6.01658977 116.074236,6.2396685 C115.174923,6.46274722 114.472747,7.16492306 114.249668,8.06423624 C114.02659,8.96354943 114.3192,9.91248636 115.01,10.53 L117.82,13.34 L115,16.11 C114.290251,16.8259951 114.080017,17.8982355 114.466841,18.8292352 C114.853665,19.7602348 115.761839,20.3677845 116.77,20.37 C117.431133,20.3741068 118.065862,20.1108385 118.53,19.64 L121.35,16.83 L124.16,19.64 C124.629129,20.1095073 125.266288,20.3722907 125.93,20.37 C126.591133,20.3741068 127.225862,20.1108385 127.69,19.64 C128.159604,19.1726889 128.423619,18.5375012 128.423619,17.875 C128.423619,17.2124988 128.159604,16.5773111 127.69,16.11 L124.88,13.29 L127.69,10.48 C128.637917,9.51523402 128.642357,7.9701978 127.7,7 Z" id="Shape" fill="#17212F" fill-rule="nonzero"></path>
                <path d="M10.42,121 C8.57976655,120.996455 6.81258595,120.279546 5.49,119 L2.76,116.34 C1.4002599,115.027518 0.616321232,113.229493 0.58,111.34 C0.547926448,109.669139 1.18103431,108.053995 2.34,106.85 L35,73.34 C35.613467,72.7250654 36.4463882,72.379475 37.315,72.379475 C38.1836118,72.379475 39.016533,72.7250654 39.63,73.34 L47.63,81.1 C48.2122046,81.6393834 48.5693436,82.378661 48.63,83.17 C48.6960067,84.0329133 48.3861471,84.8822931 47.78,85.5 L14.98,119.14 C13.7792903,120.358956 12.1307225,121.031398 10.42,121 Z M37.42,78.09 L5.92,110.35 C5.69296394,110.605746 5.57144882,110.938125 5.58,111.28 C5.60514539,111.829463 5.84588074,112.346865 6.25,112.72 L9,115.38 C9.59814968,116.08543 10.6436489,116.199644 11.38,115.64 L42.84,83.37 L37.42,78.09 Z" id="Shape" fill="#17212F" fill-rule="nonzero"></path>
                <path d="M18.8,111.64 L9.78,102.87" id="Shape" fill="#68E3B4" fill-rule="nonzero"></path>
                <rect id="Rectangle-path" fill="#17212F" fill-rule="nonzero" transform="translate(14.288768, 107.253450) rotate(-45.800000) translate(-14.288768, -107.253450) " x="11.7887676" y="100.95845" width="5" height="12.59"></rect>
                <path d="M46.69,84 C46.4216958,83.9958718 46.1554793,83.952064 45.9,83.87 C44.5904638,83.4284751 43.8841851,82.0114476 44.32,80.7 L46.79,73.35 L39,76.12 C38.1501999,76.4531354 37.1863877,76.296656 36.4856309,75.7117804 C35.7848742,75.1269049 35.4585696,74.2066087 35.6343757,73.3109348 C35.8101818,72.415261 36.4601514,71.6865914 37.33,71.41 L50,66.92 C50.9011189,66.5950747 51.9087348,66.8158814 52.5913918,67.4878719 C53.2740488,68.1598623 53.5106951,69.1638762 53.2,70.07 L49.1,82.28 C48.7618088,83.3205545 47.7839778,84.0184256 46.69,84 Z" id="Shape" fill="#17212F" fill-rule="nonzero"></path>
            </g>
        </g>
    </g>
</svg>