<?xml version="1.0" encoding="UTF-8"?>
<svg width="135px" height="155px" viewBox="0 0 135 155" version="1.1" xmlns="http://www.w3.org/2000/svg" xmlns:xlink="http://www.w3.org/1999/xlink">
    <!-- Generator: Sketch 51 (57462) - http://www.bohemiancoding.com/sketch -->
    <title>icon_ecommercereviews</title>
    <desc>Created with Sketch.</desc>
    <defs></defs>
    <g id="Page-1" stroke="none" stroke-width="1" fill="none" fill-rule="evenodd">
        <g id="icon_ecommercereviews" transform="translate(1.000000, 0.000000)" fill-rule="nonzero">
            <g id="_Layer_" transform="translate(13.000000, 0.000000)" fill="#C1EAF5">
                <path d="M78.39,62 L101.51,39.6 C102.142361,38.9870549 102.371185,38.0678785 102.1,37.23 C101.820754,36.3971615 101.098604,35.790864 100.23,35.66 L67.8,30.9 L53.33,1.5 C52.9402621,0.713134783 52.138096,0.215280449 51.26,0.215280449 C50.381904,0.215280449 49.5797379,0.713134783 49.19,1.5 L34.66,30.87 L2.22,35.55 C1.35220663,35.677752 0.631637555,36.2859743 0.36,37.12 C0.0813331887,37.9557966 0.306860023,38.8773459 0.94,39.49 L24.39,62.39 L18.82,94.68 C18.6640997,95.5462068 19.0161874,96.425431 19.7268701,96.9446123 C20.4375527,97.4637936 21.382203,97.531887 22.16,97.12 L51.16,81.89 L80.16,97.17 C80.9372634,97.5772647 81.8781647,97.5089714 82.5884703,96.9937348 C83.298776,96.4784982 83.655819,95.6052974 83.51,94.74 L81.51,83.25 L78.39,62 Z" id="Shape"></path>
            </g>
            <g id="Tracé" transform="translate(0.000000, 16.000000)" fill="#17212F" stroke="#17212F">
                <path d="M98.44,138 L98,138 C92.24,137.61 64.78,125.85 56.51,122.25 C52.94,120.7 51.51,116.25 52.98,111.4 C54.36,106.95 58.81,103.85 62.51,104.78 C63.31,104.98 68.73,106.53 72.79,107.69 L53.1,70.43 C51.39,67.18 50.2,60.78 56.61,57.43 C63.28,53.9 68.04,58.65 69.61,61.65 L79.26,79.92 C80.1351313,78.7462361 81.2673955,77.7884295 82.57,77.12 C86.52,75.04 89.57,77.4 91.38,79.12 C91.7935565,76.4951013 93.4834855,74.2468587 95.89,73.12 C100.59,70.64 103.77,73.78 105.52,75.6 C105.84,74.24 106.72,72.45 109.7,70.88 C114.62,68.28 118.36,71.79 119.7,74.01 L129.75,93.01 C133.166737,99.5361408 133.94711,107.125096 131.93,114.21 C130.4,119.85 127.31,124.86 124.42,126.38 L122.83,127.29 C114.13,132.22 103.57,138 98.44,138 Z M61.17,108.6 C59.79,108.6 57.6,110.07 56.83,112.6 C55.97,115.38 56.51,117.9 58.12,118.6 C75.37,126.09 94.47,133.77 98.29,134.03 C101.17,134.19 108.78,130.77 120.82,123.77 C121.67,123.27 122.27,122.93 122.55,122.77 C123.91,122.05 126.55,118.47 128.07,113.09 C129.81298,106.979913 129.147307,100.434126 126.21,94.8 L116.21,75.85 C115.95,75.41 114.26,72.91 111.62,74.3 C109.54,75.4 109.46,76.15 109.37,77.09 C109.37763,78.3735578 108.6937,79.561838 107.58,80.2 C105.58,81.26 103.97,79.6 102.8,78.38 C100.87,76.38 99.74,75.52 97.8,76.55 C95.47,77.78 95.37,79.21 95.27,80.73 C95.19,81.79 95.1,83.25 93.71,83.98 C91.88,84.98 90.31,83.47 89.16,82.39 C87.16,80.48 86.02,79.81 84.47,80.63 C81.53,82.18 81.74,84.46 81.9,84.81 C82.4148193,85.7849305 82.0435693,86.9926111 81.07,87.51 C80.5995646,87.7596767 80.0489744,87.8114075 79.5402656,87.6537265 C79.0315568,87.4960456 78.6067493,87.1419775 78.36,86.67 L66.11,63.49 C65.66,62.63 63.11,58.49 58.5,60.94 C54.24,63.19 56.02,67.35 56.66,68.57 L78.54,109.99 C78.9102261,110.698369 78.823147,111.559146 78.3185521,112.179014 C77.8139571,112.798883 76.9887523,113.0588 76.22,112.84 C72.48,111.76 62.56,108.92 61.56,108.67 C61.4347292,108.620378 61.3036921,108.586779 61.17,108.57 L61.17,108.6 Z" id="Shape"></path>
                <path d="M119.7,73.85 C118.7,72.19 116.38,69.85 113.19,69.85 C111.981861,69.8684292 110.796898,70.1844194 109.74,70.77 C106.74,72.34 105.88,74.13 105.56,75.49 C104.27,74.15 102.21,72.09 99.33,72.09 C98.1385045,72.1141475 96.9710976,72.4300341 95.93,73.01 C93.5234855,74.1368587 91.8335565,76.3851013 91.42,79.01 C90.11,77.81 88.17,76.24 85.7,76.24 C84.6181383,76.2543303 83.5566171,76.5360285 82.61,77.06 C81.3073955,77.7284295 80.1751313,78.6862361 79.3,79.86 L69.65,61.59 C68.46,59.35 65.49,56.12 61.28,56.12 C59.6504582,56.1455651 58.0527218,56.5750641 56.63,57.37 C50.22,60.76 51.41,67.16 53.12,70.37 L72.81,107.63 C68.75,106.47 63.33,104.92 62.53,104.72 C62.0885643,104.608769 61.6352307,104.551683 61.18,104.55 C57.81,104.55 54.18,107.42 53,111.34 C51.51,116.18 53,120.64 56.53,122.19 C64.8,125.79 92.26,137.55 98.02,137.94 L98.44,137.94 C103.57,137.94 114.13,132.19 122.83,127.13 L124.42,126.22 C127.31,124.7 130.42,119.69 131.93,114.05 C133.94711,106.965096 133.166737,99.3761408 129.75,92.85 L119.7,73.85 Z M128.07,113 C126.6,118.38 123.91,122 122.55,122.68 C122.27,122.83 121.67,123.17 120.82,123.68 C109,130.56 101.51,134 98.49,134 L98.29,134 C94.47,133.74 75.37,126.06 58.12,118.57 C56.51,117.87 55.97,115.35 56.83,112.57 C57.6,110.07 59.83,108.57 61.17,108.57 C61.3015613,108.570569 61.4325501,108.587363 61.56,108.62 C62.56,108.87 72.48,111.71 76.22,112.79 C76.3989543,112.841033 76.5839227,112.867938 76.77,112.87 C77.4701616,112.869782 78.1192303,112.50344 78.4812636,111.904142 C78.843297,111.304844 78.8655752,110.559861 78.54,109.94 L56.66,68.52 C56.02,67.3 54.24,63.14 58.5,60.89 C59.3562044,60.4079356 60.3176973,60.143525 61.3,60.12 C64.17,60.12 65.76,62.78 66.11,63.44 L78.36,86.62 C78.7071326,87.2809235 79.3934689,87.6934965 80.14,87.69 C80.4636268,87.6863751 80.7819899,87.6076401 81.07,87.46 C82.0435693,86.9426111 82.4148193,85.7349305 81.9,84.76 C81.74,84.41 81.53,82.13 84.47,80.58 C84.8458698,80.3674069 85.2683047,80.2506363 85.7,80.24 C86.7,80.24 87.7,80.97 89.16,82.34 C90.04,83.17 91.16,84.24 92.5,84.24 C92.9227425,84.2381586 93.3384495,84.1316552 93.71,83.93 C95.1,83.2 95.19,81.74 95.27,80.68 C95.37,79.16 95.47,77.68 97.8,76.5 C98.2618418,76.2283971 98.7844877,76.0771048 99.32,76.06 C100.45,76.06 101.42,76.9 102.79,78.33 C103.7,79.28 104.86,80.49 106.28,80.49 C106.731613,80.4859289 107.175049,80.3690545 107.57,80.15 C108.6837,79.511838 109.36763,78.3235578 109.36,77.04 C109.45,76.1 109.53,75.35 111.61,74.25 C112.089145,73.9890701 112.624478,73.8483736 113.17,73.84 C114.434272,73.9831621 115.551592,74.7280425 116.17,75.84 L126.17,94.79 C129.099827,100.396368 129.779404,106.909582 128.07,113 Z" id="Shape"></path>
                <path d="M53.16,79.06 C52.5777165,78.7541618 51.8822835,78.7541618 51.3,79.06 L24,93.39 L29.24,63 C29.3525055,62.3521734 29.1394025,61.6904325 28.67,61.23 L6.61,39.73 L37.1,35.3 C37.7483949,35.2043916 38.3088013,34.7971629 38.6,34.21 L52.24,6.58 L65.87,34.21 C66.1611987,34.7971629 66.7216051,35.2043916 67.37,35.3 L97.86,39.74 L75.8,61.24 C75.3269648,61.6984749 75.1100348,62.3604854 75.22,63.01 L75.35,63.78 L80.54,73.58 L80.74,73.47 L81.05,73.33 L79.34,63.33 L103.55,39.73 C104.094368,39.1983027 104.28985,38.4037546 104.054317,37.6801784 C103.818783,36.9566023 103.193045,36.4293724 102.44,36.32 L69,31.53 L54,1.21 C53.661673,0.53117097 52.9684682,0.102132277 52.21,0.102132277 C51.4515318,0.102132277 50.758327,0.53117097 50.42,1.21 L35.42,31.52 L2,36.38 C1.24695539,36.4893724 0.621216859,37.0166023 0.385683276,37.7401784 C0.150149693,38.4637546 0.34563203,39.2583027 0.89,39.79 L25.09,63.39 L19.37,96.71 C19.2382919,97.4629302 19.5472478,98.2250854 20.1660589,98.6737766 C20.78487,99.1224678 21.605305,99.1792181 22.28,98.82 L52.2,83.09 L56.47,85.33 L53.16,79.08 L53.16,79.06 Z" id="Shape"></path>
            </g>
        </g>
    </g>
</svg>