<svg width="51" height="51" viewBox="0 0 51 51" fill="none" xmlns="http://www.w3.org/2000/svg">
<path d="M20.8581 20.1912V18.2428C20.1818 18.1357 19.4986 18.077 18.8139 18.0672C12.185 18.0531 6.31598 22.3488 4.32562 28.6719C2.33493 34.9948 4.68463 41.8776 10.126 45.6636C6.05008 41.3014 4.91827 34.9508 7.23634 29.4491C9.55425 23.9474 14.8892 20.3214 20.8581 20.1912Z" fill="#25F4EE"/>
<path d="M21.2256 42.262C24.9318 42.257 27.9784 39.3371 28.1406 35.6344V2.59209H34.1774C34.0542 1.90167 33.9953 1.2013 34.0017 0.5L25.7451 0.5V33.5103C25.6078 37.2319 22.5541 40.1798 18.83 40.1859C17.7171 40.1764 16.6224 39.9027 15.636 39.3874C16.2753 40.2731 17.1148 40.9952 18.0862 41.4947C19.0576 41.9943 20.1333 42.2572 21.2256 42.262ZM45.4523 13.8032V11.9666C43.2307 11.9673 41.0583 11.3117 39.208 10.0821C40.83 11.9677 43.022 13.2739 45.4523 13.8032Z" fill="#25F4EE"/>
<path d="M39.2076 10.0822C37.385 8.00656 36.3802 5.33846 36.3809 2.57617H34.177C34.4617 4.10341 35.0546 5.55664 35.9195 6.84715C36.7844 8.13766 37.9032 9.23838 39.2076 10.0822ZM18.8137 26.3238C15.6331 26.3401 12.8718 28.5191 12.1165 31.6087C11.3611 34.6983 12.8054 37.9054 15.6197 39.3874C14.8718 38.3549 14.4239 37.1358 14.3256 35.8647C14.2272 34.5936 14.4821 33.3201 15.0621 32.1848C15.6421 31.0495 16.5247 30.0967 17.6124 29.4316C18.7 28.7665 19.9503 28.415 21.2252 28.4159C21.9183 28.4245 22.6066 28.5322 23.2694 28.7353V20.335C22.5926 20.2336 21.9095 20.1802 21.2252 20.1753H20.8579V26.5634C20.1917 26.3848 19.5031 26.3041 18.8137 26.3238Z" fill="#FE2C55"/>
<path d="M45.4518 13.8032V20.1913C41.339 20.1833 37.3329 18.8815 34.0011 16.4702V33.2549C33.9836 41.6303 27.1889 48.4106 18.8135 48.4106C15.7031 48.4161 12.6676 47.4564 10.1257 45.6637C14.3677 50.2261 20.9695 51.7279 26.7678 49.4496C32.5659 47.1711 36.3793 41.5768 36.3807 35.347V18.6102C39.7237 21.0057 43.7347 22.2906 47.8473 22.2834V14.0587C47.0421 14.0562 46.2393 13.9706 45.4518 13.8032Z" fill="#FE2C55"/>
<path d="M34.0021 33.2549V16.4702C37.3441 18.8677 41.3557 20.1527 45.4687 20.1434V13.7553C43.0388 13.2422 40.8416 11.953 39.2084 10.0822C37.904 9.23838 36.7851 8.13766 35.9202 6.84715C35.0553 5.55664 34.4624 4.10341 34.1778 2.57617H28.1411V35.6344C28.0203 38.5838 26.0448 41.133 23.219 41.9861C20.3931 42.8392 17.3372 41.8091 15.6045 39.4194C12.7902 37.9373 11.3459 34.7302 12.1013 31.6406C12.8566 28.551 15.6179 26.3721 18.7985 26.3558C19.4918 26.362 20.1805 26.4696 20.8427 26.6752V20.2871C14.8403 20.3888 9.46506 24.0273 7.14044 29.5621C4.81598 35.0969 5.98101 41.4822 10.1107 45.8394C12.6777 47.573 15.7176 48.471 18.8145 48.4106C27.1899 48.4106 33.9845 41.6303 34.0021 33.2549Z" fill="black"/>
</svg>
