<svg width="51" height="51" viewBox="0 0 51 51" fill="none" xmlns="http://www.w3.org/2000/svg">
<path fill-rule="evenodd" clip-rule="evenodd" d="M49.4551 13.8134C48.8801 11.648 47.1861 9.9429 45.0344 9.3642C41.1355 8.3125 25.5 8.3125 25.5 8.3125C25.5 8.3125 9.86449 8.3125 5.96534 9.3642C3.81392 9.9429 2.1196 11.648 1.5446 13.8134C0.5 17.7378 0.5 25.9261 0.5 25.9261C0.5 25.9261 0.5 34.1142 1.5446 38.0392C2.1196 40.2043 3.81392 41.9094 5.96534 42.4883C9.86449 43.5398 25.5 43.5398 25.5 43.5398C25.5 43.5398 41.1355 43.5398 45.0344 42.4883C47.1861 41.9094 48.8801 40.2043 49.4551 38.0392C50.5 34.1142 50.5 25.9261 50.5 25.9261C50.5 25.9261 50.5 17.7378 49.4551 13.8134Z" fill="#FF0000"/>
<path fill-rule="evenodd" clip-rule="evenodd" d="M20.3862 33.3605L33.4544 25.9264L20.3862 18.4917V33.3605Z" fill="white"/>
</svg>
